<?xml version="1.0" standalone="no"?>
<!DOCTYPE svg PUBLIC "-//W3C//DTD SVG 20010904//EN"
 "http://www.w3.org/TR/2001/REC-SVG-20010904/DTD/svg10.dtd">
<svg version="1.0" xmlns="http://www.w3.org/2000/svg"
 width="509.000000pt" height="509.000000pt" viewBox="0 0 509.000000 509.000000"
 preserveAspectRatio="xMidYMid meet">
<metadata>
Created by potrace 1.14, written by Peter Selinger 2001-2017
</metadata>
<g transform="translate(0.000000,509.000000) scale(0.100000,-0.100000)"
fill="#000000" stroke="none">
<path d="M2619 4826 c-2 -2 -26 -6 -54 -9 -91 -10 -169 -28 -270 -62 -215 -72
-397 -183 -570 -346 -38 -36 -101 -83 -140 -104 -99 -53 -252 -159 -335 -230
-85 -73 -223 -219 -288 -306 -62 -83 -192 -289 -192 -305 0 -3 -13 -34 -29
-69 -37 -80 -87 -235 -111 -345 -43 -193 -46 -462 -9 -649 10 -49 9 -57 -15
-101 -33 -60 -72 -164 -80 -210 -3 -19 -9 -48 -12 -65 -11 -50 -7 -246 5 -310
13 -64 46 -177 60 -210 144 -324 363 -550 696 -718 99 -50 275 -121 322 -130
10 -2 25 -7 33 -10 68 -25 334 -74 450 -83 36 -2 92 -7 125 -9 120 -11 437 -5
555 10 19 2 60 7 90 10 89 10 130 15 225 31 106 18 323 61 380 76 22 5 47 11
55 13 142 28 418 121 534 179 333 169 556 433 670 795 15 46 29 102 32 124 2
22 6 43 9 46 2 4 6 34 10 66 3 33 8 71 11 84 7 34 7 255 -1 326 -12 115 -30
229 -46 290 -5 22 -15 58 -20 80 -27 108 -75 236 -140 370 -33 67 -39 90 -39
143 0 54 -2 63 -17 61 -48 -4 -70 2 -81 24 -10 22 -35 55 -80 106 -82 92 -135
199 -238 481 -15 41 -37 98 -49 125 -13 28 -31 77 -40 109 -98 349 -441 559
-1138 700 -111 22 -255 34 -268 22z"/>
</g>
</svg>
